# xmcd CD database file
#
# Track frame offsets:
#	150
#	26605
#	56500
#	77303
#	101565
#	154742
#	165748
#	187109
#	204742
#	226026
#	247542
#	270604
#	286364
#	302146
#
# Disc length: 4299 seconds
#
# Revision: 0
# Processed by: cddbd v1.5.2PL0 Copyright (c) Steve Scherf et al.
# Submitted via: CDex 1.70beta2
#
DISCID=ad10c90e
DTITLE=Buddy DeFranco and the All-Stars - Wholly cats
DYEAR=2007
DGENRE=Jazz
TTITLE0=Benny's Bugle
TTITLE1=Smooth one
TTITLE2=Air mail special
TTITLE3=More than you know
TTITLE4=Wholly cats
TTITLE5=Goodbye
TTITLE6=Seven come eleven
TTITLE7=My blue heaven
TTITLE8=Stardust
TTITLE9=Cross your heart
TTITLE10=Frenesi
TTITLE11=Medley: Dancing in the dark/Moonglow/Time on my hands
TTITLE12=Indian love call
TTITLE13=Summit ridge drive
EXTD=YEAR: 2007
EXTT0=
EXTT1=
EXTT2=
EXTT3=
EXTT4=
EXTT5=
EXTT6=
EXTT7=
EXTT8=
EXTT9=
EXTT10=
EXTT11=
EXTT12=
EXTT13=
PLAYORDER=
